<svg width="40" height="40" viewBox="0 0 40 40" fill="none" xmlns="http://www.w3.org/2000/svg">
<rect width="40" height="40" rx="8" fill="#D3DCE4"/>
<path d="M32.1849 36.3717V39.3268C32.1849 39.6595 31.9154 39.9289 31.5828 39.9289H9.60426C9.27157 39.9289 9.00211 39.6595 9.00211 39.3268V36.3717C9.00211 33.2714 11.5153 30.7597 14.6164 30.7589C15.7123 30.7582 16.6773 30.1944 17.2328 29.3394C17.7908 28.4818 17.7333 27.736 17.7333 27.1332L17.7446 27.1054C15.0424 25.9869 13.1419 23.3246 13.1419 20.2183V19.9827C12.0689 19.9827 11.2602 19.1348 11.2602 18.1356V15.0074C11.2361 13.9183 11.2858 10.0773 14.0602 7.40303C17.2862 4.29368 22.3984 4.54808 26.1017 6.21153C26.2221 6.26572 26.2183 6.43808 26.0964 6.48851L25.1307 6.88593C24.9862 6.9454 25.0171 7.15841 25.1721 7.17497L25.641 7.2254C27.8863 7.4655 29.972 8.68486 31.2651 10.7141C31.2997 10.7691 31.29 10.8526 31.2455 10.9C30.4477 11.7438 30.0021 12.8638 30.0021 14.0282V18.1356C30.0021 19.1555 29.1749 19.9827 28.155 19.9827H28.0451V20.2183C28.0451 23.3246 26.1446 25.9869 23.4424 27.1054L23.4537 27.1332C23.4537 27.7186 23.3915 28.4745 23.9543 29.3394C24.5097 30.1944 25.4747 30.7582 26.5706 30.7589C29.6717 30.7597 32.1849 33.2714 32.1849 36.3717Z" fill="#F1D5B2"/>
<path d="M32.1849 36.3717V39.3268C32.1849 39.6593 31.9153 39.9289 31.5828 39.9289H9.60426C9.27172 39.9289 9.00211 39.6593 9.00211 39.3268V36.3717C9.00211 33.2714 11.5157 30.7601 14.616 30.7589C15.7122 30.7586 16.6774 30.1941 17.2328 29.3394C19.1712 30.9954 22.0147 30.9964 23.9543 29.3394C24.5095 30.1941 25.4748 30.7586 26.571 30.7589C29.6713 30.7601 32.1849 33.2714 32.1849 36.3717Z" fill="#FF1200"/>
<path d="M31.2648 10.7145C31.2997 10.7694 31.29 10.8525 31.2453 10.8997C30.4477 11.7441 30.0021 12.8637 30.0021 14.0282V18.1356C30.0021 19.068 29.2996 19.9827 28.0451 19.9827V15.3334C28.0451 13.338 26.4276 11.7205 24.4322 11.7205H16.7548C14.7594 11.7205 13.1419 13.338 13.1419 15.3334V19.9827C12.0689 19.9827 11.2602 19.1348 11.2602 18.1356V15.0074C11.2361 13.9183 11.2858 10.0773 14.0602 7.40303C17.286 4.2936 22.3988 4.54816 26.1014 6.21175C26.2218 6.26587 26.2186 6.43831 26.0965 6.48859L25.1307 6.88616C24.9863 6.94562 25.0168 7.15841 25.172 7.17504L25.641 7.2254C27.8867 7.46528 29.9719 8.68464 31.2648 10.7145Z" fill="#373E49"/>
<path d="M28.0451 20.2183C28.0451 24.3352 24.7071 27.6699 20.5935 27.6699C16.7178 27.6699 13.1419 24.6568 13.1419 19.9827V15.3334C13.1419 13.338 14.7594 11.7205 16.7548 11.7205H24.4322C26.4276 11.7205 28.0451 13.338 28.0451 15.3334V20.2183Z" fill="#F8E4CB"/>
<path d="M26.6903 38.6494H24.8838C24.5513 38.6494 24.2817 38.3798 24.2817 38.0472C24.2817 37.7147 24.5513 37.4451 24.8838 37.4451H26.6903C27.0228 37.4451 27.2924 37.7147 27.2924 38.0472C27.2924 38.3798 27.0229 38.6494 26.6903 38.6494Z" fill="#D3DCE4"/>
</svg>
